<svg width="23" height="23" viewBox="0 0 23 23" fill="none" xmlns="http://www.w3.org/2000/svg">
<path d="M21.1852 0.97478C20.2014 -0.00900881 18.6111 -0.00900881 17.6273 0.97478L16.2752 2.32244L20.673 6.72029L22.0252 5.36814C23.009 4.38435 23.009 2.79412 22.0252 1.81033L21.1852 0.97478ZM7.74453 10.8576C7.47051 11.1316 7.25937 11.4685 7.13809 11.8414L5.8084 15.8304C5.67812 16.2168 5.78145 16.6435 6.06895 16.9355C6.35645 17.2275 6.7832 17.3263 7.17402 17.1961L11.1631 15.8664C11.5314 15.7451 11.8684 15.534 12.1469 15.2599L19.6623 7.74002L15.26 3.33767L7.74453 10.8576ZM4.3125 2.87498C1.93164 2.87498 0 4.80662 0 7.18748V18.6875C0 21.0683 1.93164 23 4.3125 23H15.8125C18.1934 23 20.125 21.0683 20.125 18.6875V14.375C20.125 13.5799 19.4826 12.9375 18.6875 12.9375C17.8924 12.9375 17.25 13.5799 17.25 14.375V18.6875C17.25 19.4826 16.6076 20.125 15.8125 20.125H4.3125C3.51738 20.125 2.875 19.4826 2.875 18.6875V7.18748C2.875 6.39236 3.51738 5.74998 4.3125 5.74998H8.625C9.42012 5.74998 10.0625 5.10759 10.0625 4.31248C10.0625 3.51736 9.42012 2.87498 8.625 2.87498H4.3125Z" fill="#3D51D6"/>
</svg>
