<svg width="30" height="30" viewBox="0 0 30 30" fill="none" xmlns="http://www.w3.org/2000/svg">
<path d="M6.96433 19.0906H1.60699C1.16071 19.0906 0.781157 18.8918 0.468624 18.494C0.156149 18.0965 0 17.6136 0 17.0452V12.9539C0 12.386 0.156149 11.9033 0.468624 11.5057C0.781157 11.108 1.16071 10.9091 1.60699 10.9091H6.96433C7.41061 10.9091 7.79016 11.108 8.1027 11.5057C8.41523 11.9033 8.57132 12.386 8.57132 12.9539V17.0452C8.57132 17.6136 8.41523 18.0965 8.1027 18.494C7.79016 18.8916 7.41061 19.0906 6.96433 19.0906Z" fill="white"/>
<path d="M6.96433 30H1.60699C1.16071 30 0.781157 29.8013 0.468624 29.4035C0.156149 29.0057 0 28.5227 0 27.9547V23.8636C0 23.2952 0.156149 22.812 0.468624 22.4145C0.781157 22.017 1.16071 21.8179 1.60699 21.8179H6.96433C7.41061 21.8179 7.79016 22.017 8.1027 22.4145C8.41523 22.8121 8.57132 23.295 8.57132 23.8633V27.9544C8.57132 28.5224 8.41523 29.0054 8.1027 29.4034C7.79016 29.801 7.41061 30 6.96433 30Z" fill="white"/>
<path d="M6.96433 8.18176H1.60699C1.16071 8.18176 0.781157 7.98311 0.468624 7.58519C0.156149 7.18736 0 6.70437 0 6.13638V2.04487C0 1.47695 0.156149 0.993667 0.468624 0.596352C0.781157 0.19844 1.16071 5.72205e-06 1.60699 5.72205e-06H6.96433C7.41061 5.72205e-06 7.79016 0.198738 8.1027 0.596352C8.41523 0.993667 8.57132 1.47695 8.57132 2.04487V6.13638C8.57132 6.70437 8.41523 7.18735 8.1027 7.58497C7.79016 7.98258 7.41061 8.18176 6.96433 8.18176Z" fill="white"/>
<path d="M28.3927 19.0906H12.3213C11.8749 19.0906 11.4955 18.8918 11.183 18.494C10.8704 18.0963 10.7144 17.6136 10.7144 17.0452V12.9539C10.7144 12.386 10.8704 11.9033 11.183 11.5057C11.4953 11.108 11.8749 10.9091 12.3213 10.9091H28.3931C28.8393 10.9091 29.219 11.108 29.5312 11.5057C29.8439 11.9033 30 12.386 30 12.9539V17.0452C30 17.6136 29.8439 18.0965 29.5311 18.494C29.2186 18.8918 28.8394 19.0906 28.3927 19.0906Z" fill="white"/>
<path d="M28.3927 8.18176H12.3213C11.8749 8.18176 11.4955 7.98311 11.183 7.58519C10.8704 7.18736 10.7144 6.70459 10.7144 6.13668V2.04539C10.7144 1.4774 10.8704 0.993965 11.183 0.596351C11.4953 0.198737 11.8749 0.000303268 12.3213 0.000303268H28.3931C28.8393 0.000303268 29.219 0.198961 29.5312 0.596351C29.8439 0.994189 30 1.4774 30 2.04539V6.13668C30 6.70459 29.8439 7.1878 29.5311 7.58519C29.2186 7.98258 28.8394 8.18176 28.3927 8.18176Z" fill="white"/>
<path d="M29.5311 29.4032C29.2186 29.8007 28.8393 29.9997 28.3927 29.9997H12.3213C11.8749 29.9997 11.4955 29.801 11.183 29.4032C10.8704 29.0054 10.7144 28.5224 10.7144 27.9544V23.8632C10.7144 23.2949 10.8704 22.8123 11.183 22.4144C11.4953 22.0169 11.8749 21.8179 12.3213 21.8179H28.3931C28.8393 21.8179 29.2186 22.0169 29.5312 22.4144C29.8439 22.812 30 23.2949 30 23.8632V27.9544C30 28.5224 29.8439 29.0054 29.5311 29.4032Z" fill="white"/>
</svg>
