<svg width="18" height="21" viewBox="0 0 18 21" fill="none" xmlns="http://www.w3.org/2000/svg">
<path d="M5.43214 0.725977L5.14286 1.3125H1.28571C0.574554 1.3125 0 1.89902 0 2.625C0 3.35098 0.574554 3.9375 1.28571 3.9375H16.7143C17.4254 3.9375 18 3.35098 18 2.625C18 1.89902 17.4254 1.3125 16.7143 1.3125H12.8571L12.5679 0.725977C12.3509 0.278906 11.9049 0 11.4188 0H6.58125C6.09509 0 5.64911 0.278906 5.43214 0.725977ZM16.7143 5.25H1.28571L2.1375 19.1543C2.20179 20.192 3.04554 21 4.06205 21H13.9379C14.9545 21 15.7982 20.192 15.8625 19.1543L16.7143 5.25Z" fill="#E36969"/>
</svg>
