<svg width="37" height="40" viewBox="0 0 37 40" fill="none" xmlns="http://www.w3.org/2000/svg">
<path d="M36.3207 21.9422C37.224 20.868 37.224 19.1234 36.3207 18.0492L27.0707 7.04922C26.1674 5.975 24.7004 5.975 23.7971 7.04922C22.8937 8.12344 22.8937 9.86797 23.7971 10.9422L29.1014 17.25H13.875C12.5959 17.25 11.5625 18.4789 11.5625 20C11.5625 21.5211 12.5959 22.75 13.875 22.75H29.1014L23.7971 29.0578C22.8937 30.132 22.8937 31.8766 23.7971 32.9508C24.7004 34.025 26.1674 34.025 27.0707 32.9508L36.3207 21.9508V21.9422ZM11.5625 6.25C12.8416 6.25 13.875 5.02109 13.875 3.5C13.875 1.97891 12.8416 0.75 11.5625 0.75H6.9375C3.10742 0.75 0 4.44531 0 9V31C0 35.5547 3.10742 39.25 6.9375 39.25H11.5625C12.8416 39.25 13.875 38.0211 13.875 36.5C13.875 34.9789 12.8416 33.75 11.5625 33.75H6.9375C5.6584 33.75 4.625 32.5211 4.625 31V9C4.625 7.47891 5.6584 6.25 6.9375 6.25H11.5625Z" fill="white"/>
</svg>
